<?xml version="1.0" encoding="UTF-8"?>
<svg id="Layer_1" data-name="Layer 1" xmlns="http://www.w3.org/2000/svg" viewBox="0 0 916.01 179" fill="#ffffff">
  <path d="M0,179v-21.01s5.01.01,5.01.01v-7.01s4,.01,4,.01v-5.01s6.99,0,6.99,0v-33h23v4h18v-11h22v5.01s5,0,5,0v-26h4v25h9v-21h6v20h14.5l12,12h16.5v-21h12.01s0,9,0,9h29v-7.01s10,0,10,0v19h6.01s-.01,10.01-.01,10.01h5.01v-16.01h5.01c-.99-7.14,2.05-14.4.94-21.45-.25-1.59-1.69-2.76-2-5-.46-3.32.39-7.54.12-11l-3.07-1.04c6.07-2.28,7.05-4.67,10.41-9.59,5.15-7.54,12.66-17.85,12.6-26.9l4.84.13,1.14,3.84c-2.19.2-3.51-1.94-4.97.5l16.91,28.82,6.06,1.7c1.03,2.59-1.78,1.61-2.02,2.64-.45,1.97.52,10.88.02,11.36h-5.01c.27,2.23-.55,5.36.16,7.38.52,1.49,4.35,1.49,2.85,5.62,3.17.67,1.78-2,1.99-4.02,2.84.4,6.7-.58,9.32.03.81.19.27,1.82,2.12,2.06,2.61.34,5.84-.38,8.57-.08v-22h5.01s.99,22,.99,22h11.01s0-7,0-7h19l.47,11.09c3.43.67,7.29,1.62,10.53-.09v16h5.01c.26-3.39-.75-7.59.73-10.76,1.31-2.82,4.91-2.79,5.75-4.18.53-.89-.61-6.37-.26-7.48.42-1.34,2.52-1.19,2.81-2.28.96-3.6-.8-10.62,0-14.78.54-2.82,3.42-3.23,3.96-6.04s-.32-6.5.03-9.47c1.2-1.58,1.82-.02,2,1.47.33,2.81-.48,5.61.44,8.58.73,2.35,3.95,4.07,4.41,6.68.52,2.97-1.86,7.75-.85,11.26,5.05-.49,2.63-9.49,3.01-13.48,1.16-12.3,1.91-8.07,8-14.99,3.69-4.2,2.76-10.29,3-15.51l1.78,11.69c.58,4.4,7.4,6.29,8.7,9.31.2.46,1.51,7.1,1.51,7.49v15.5h3c1.18-1.12-1.4-10.41-.79-12.26.66-2,3.57-3.2,4.35-5.69.93-2.96.11-5.77.44-8.58.18-1.49.8-3.05,2-1.47.4,3.14-.67,7.36.21,10.29.58,1.95,3.25,2.49,3.78,5.22.62,3.22-.82,13.78.16,15.33l3.87,1.16-1,3.98h8c.8-.79-.66-9.58-.51-11.5.83-10.86,5.75-21.34,7.24-31.25.82-5.46.55-12.06,1.27-17.75.17-1.37.72-3.19,1.99-1.49.12,2.12-.28,4.34.06,6.45,2.35,14.57,6.45,29.64,8.63,44.21.71,4.76-3.86,10.18,2.93,13.78l-.61,6.55c4.25-1.71,7.66-.52,11.94.05l.05,4.96,7-1.51v-21c0-.22-1.69-2.26-1.95-4.05-.51-3.53,1.71-11.58-2.03-11.47l-.02-1.98c2.28-.03,4.41,0,6.05-1.74,1.88-2,13.9-21.68,15.13-24.6,1.39-3.29,1.87-6.17,2.31-9.66l4.46,1.05.06,3.93-3.98-.99c-.13,1.39,0,2.71.45,4.04.86,2.54,13.56,22.75,15.69,25.31,1.98,2.37,3.81,2.78,6.85,2.65l-3.07,2.54c2.04,9.19-4.01,16.77-.92,25.45l.99-7.99h5.99c.65.78-1.42,7.25,2,8l.02-8h6.99s.5,8.01.5,8.01l.5-8.01h6.99s.01,8,.01,8c3.24-1.18.08-5.46,1-8l6.48-.02.53,8.01.99-7.99,6.47-.02.54,8.01c2.37-1.32,2.19-6,.99-7.99l6.47-.02.54,8.01c3.34-.41,1.22-8.1,2.51-8.01h5.48s1,8,1,8c.93-3.33-1.6-17.17.26-18.82.59-.53,2.6.33,2.82-.73-.22-5.33.04-10.67-.01-16-.01-1.37-1.01-4.11-.91-4.3.15-.29,4.03-1.79,4.38-4.62.43-3.55-.64-9.8-.56-12.95.02-.59,1.82-.46,2.02-1.24.67-2.7-.69-7.08,0-9.62.31-1.14,3.92-1.69,4.79-4.43,2.48-7.75.35-22,3.73-30.28,2.18,9.2,1.52,21.38,3.77,30.24,1.06,4.17,4.62,3.69,4.8,4.32.47,1.72-.32,5.45-.02,7.89.18,1.42,1.61,2.33,1.68,3.82.16,3.47-1.69,9.01-.7,13l4.79,3.87-.89,20.29c.25,1.24,2.28-.6,3.27,1.95,1.2,3.13-1.26,13.47-.19,17.6l1-7.99,6.48-.02c2,2.36-2.38,6.64,1.51,8.02.53-10.28,1.97-20.88,0-30.99l8.05-2.67c1.9-4.64-2.33-14.68-1.88-17.63.57-3.67,6.21-5.88,7.17-9.9.48-2.02.26-9.22-2.34-9.31l2.02-3.5,3.95,2.02c1.05,2.51-1.77,1.62-2.01,2.63-.13.54.24,8.64.48,9.39,1.11,3.55,5.74,3.98,6.41,7.69l-1.81,14.78c1.38,2.27,2.79.75,4.49-.45-.61-5.78.15-11.71-.57-17.51-.23-1.84-1.64-3.28-1.91-5.12-1.34-9.12,5.53-9.32,9.41-14.48,2.75-3.67,2.54-10.97,2.56-13.94,0-1,.28-.87,0-3l-2-1v-1c4.09,1.63,1.92-2.98,3.5-2.98.85,0,1.28,1.77.62,2.52l2.88.46c1.12,3.15-2.52,1.49-2.96,2.02-.38.45.38,10.93.61,11.75,2.14,7.48,11.41,9.54,12.31,15.8.76,5.29-2.96,8.03-2.96,10.93v15c0,1.38,4.22,2.58,4.91-.14l-1.94-12.81c.35-2.68,5.94-5.76,6.83-10.3.14-.7.26-7.26.16-7.63-.32-1.1-4.5.11.54-4.64,1-.29,5.16,3.56,2.76,4.02h-2.28c1.36,4.11-.53,7.73,1.99,11.5,1.64,2.45,5.89,4.34,5.92,7.97.02,1.88-1.62,3.98-1.83,6.1-.35,3.56.07,7.19-.13,10.76l9.05,2.67c-3.37,6.06-1.7,15.98-1.53,23.03l4.53-.04.02,8c4.07-.93.21-7.25,1-7.99h6.99s.02,7.99.02,7.99c3.42-.74,1.35-7.21,2-8h5.99s-1.99,35.99-1.99,35.99c2.66.95,2.87-5.04,2.98-6.51.94-11.55-.09-24.03-.94-35.04-.3-3.94.06-7.95.02-11.9l-3.06-1.54c1.18-.04,2.62-.2,3.55-.95,2.34-1.89,15.01-24.59,15.41-27.69.23-1.79-.67-3.79-.46-4.87.99-5.08,5.76-10.57,4.51-16.49l4.69,14.76c4.39,2.69.36,1.76.32,4.71s11.72,25.12,14.1,27.91c1.58,1.86,3.37,1.5,4.88,3.12l-2.99.51-1,25.99c3.42-.74,1.35-7.21,2-8h5.99c.79.93-1.58,8.89,1.5,8l.52-8h5.99s1.51,8.01,1.51,8.01c1.7-2.47,1.31-5.35.51-8.01h6.99c-1.15,2.47-2.1,5.91.5,7.98,2.52-1.96,1.28-5.29,1.51-7.98h5.48s.52,8,.52,8c4.16.81.66-6.11,2.51-8.01h5.48s1.5,8.01,1.5,8.01c3.21-2.26.21-5.34,1.02-8.01l5.48.02c.17,2.05-1.16,7.94,2.5,8.01l.52-8.01c3.16,3.07,2.67.53,5.98,0-.95,10.91,2.91,11.37,2.01,0h5.98s1.5,7.99,1.5,7.99c3.21-2.26.21-5.34,1.02-8.01l5.48.02c.17,2.05-1.16,7.94,2.5,8.01l.52-8.01c3.16,3.07,2.67.53,5.98,0,.3.33-.84,11.72,2,7.99l.52-8.01h5.48c.41.48-.83,7.58,2.01,8.01v-22h7.01c.8-.79-.66-9.58-.51-11.51.83-10.86,5.75-21.34,7.24-31.25.82-5.46.55-12.06,1.27-17.75.17-1.37.72-3.19,1.99-1.49.12,2.12-.28,4.34.06,6.45,2.35,14.57,6.45,29.64,8.63,44.21.37,2.44-1.55,7.24-.71,10.63.29,1.16,2.89,1.31,3.52,2.63.51,1.06-1.18,5.27-.49,7.07l5.99-1v14l1.52-8.01h5.48c-.94,10.92,2.91,11.39,2.01.01h5.99c.65.78-1.42,7.25,2,8l.02-8h5.99c.65.78-1.42,7.25,2,8l.02-8h5.99c.29.34-.83,11.71,2,7.99,1.12-8.98-3.43-16.35-1.92-25.45l-3.07-1.04c2.52-2.13,5.05-1.74,7.45-4.55s13.53-20.65,14.93-24.07c1.03-2.52,1.54-5.13,1.66-7.84l4.96-.04v3.99s-4.01,0-4.01,0c-.17,1.44.01,2.6.55,3.95,1.46,3.62,15.09,24.67,17.74,26.28,1,.61,2.54.71,3.72.77.99,2.63-1.73,1.57-2.02,2.64-.77,2.86.51,8.28-.03,11.8-.27,1.78-1.69,2.97-2.02,5.98-1.21,11.16,1.87,24.6,4.17,35.47l9.9.1v48H0ZM545.01,60l3.38-.12c3.5-1.16,1.98-14.62-3.22-8.22l-.16,8.34ZM550.01,69.99l-5.56.94-.44,10.07h6.01s0-11.01,0-11.01ZM269.01,129c2.41-16.07-12.43-16.02-10.01,0h10.01ZM460.01,132c2.46-19.85-14.48-19.81-12.01,0h12.01ZM691.01,131c3.1-19.27-15.58-18.44-13.01,0h13.01ZM552.01,131l-.49-11.01c-8.99-6.23-10.15,4.08-8.5,11l8.99.02ZM354.01,127.99c.82-9.12-6.85-9.07-6.01,0h6.01ZM362.01,127.99c.82-9.12-6.85-9.07-6.01,0h6.01ZM370.01,127.99c.82-9.12-6.85-9.07-6.01,0h6.01ZM66,122.99h-3.99v9.01h3.99v-9.01ZM72,122.99h-3.99v9.01h3.99v-9.01ZM807.01,132c1.14-10.47-7.16-10.42-6.01,0h6.01ZM816.01,132c1.14-10.47-7.16-10.42-6.01,0h6.01ZM825.01,132c1.14-10.47-7.16-10.42-6.01,0h6.01Z"/>
</svg>