<svg width="32" height="32" viewBox="0 0 32 32" fill="none" xmlns="http://www.w3.org/2000/svg">
<g clip-path="url(#clip0_647_20)">
<path d="M15.8546 0C21.8481 0 27.0789 3.23646 29.8644 8.04203C28.7543 8.36343 27.7227 8.92769 26.8502 9.70201L26.747 9.60646C25.7301 8.73766 24.5005 8.14208 23.1772 7.88118C21.6652 7.58316 20.0978 7.73597 18.6735 8.32047C17.2493 8.90513 16.0313 9.89561 15.1747 11.1657C14.3184 12.4359 13.8603 13.9303 13.8602 15.4579C13.861 17.4593 13.8602 19.4646 13.8602 21.4669C13.8606 22.4147 14.6361 23.1837 15.5926 23.1837C16.5492 23.1837 17.3247 22.4147 17.3251 21.4669C17.3251 19.4648 17.3243 17.4588 17.3251 15.4579C17.3252 14.6097 17.579 13.7791 18.0543 13.0737C18.53 12.3683 19.2073 11.8175 19.9982 11.4927C20.7893 11.168 21.6607 11.0825 22.5005 11.2478C23.2352 11.3927 23.9185 11.7246 24.4833 12.2069L24.7185 12.4232L24.8437 12.5338C24.4554 13.4807 24.2549 14.5031 24.2549 15.5383V21.4669C24.2549 22.4151 25.0306 23.1837 25.9874 23.1837C26.9442 23.1837 27.7199 22.4151 27.7199 21.4669V15.5383C27.7199 14.3802 28.152 13.2524 28.9888 12.4232C29.615 11.8026 30.413 11.3915 31.2721 11.2358C31.7451 12.7406 32 14.3408 32 16C32 24.8365 24.7714 32 15.8546 32C7.98613 32 1.43236 26.422 1.11505e-05 19.0385C-3.08625e-05 17.845 2.68132e-05 16.6516 0.000518963 15.4584C0.000521956 14.61 0.254279 13.7799 0.729699 13.0743C1.20545 12.3687 1.88259 11.8181 2.67364 11.4932C3.46482 11.1685 4.33599 11.0831 5.17591 11.2485C6.01601 11.4141 6.78827 11.8235 7.39396 12.4238C7.99948 13.024 8.41288 13.7894 8.57997 14.6218C8.7467 15.454 8.66056 16.3177 8.33294 17.1015C8.00506 17.8853 7.44942 18.5566 6.73751 19.028C6.02547 19.4992 5.18792 19.7506 4.33169 19.7506C3.37488 19.7506 2.59923 20.5193 2.59923 21.4675C2.59963 22.4153 3.37512 23.1843 4.33169 23.1843C5.87348 23.1843 7.38087 22.7304 8.66286 21.8816C9.94462 21.0328 10.9439 19.8257 11.534 18.4144C12.1238 17.003 12.2778 15.4495 11.9772 13.9512C11.6764 12.4528 10.9338 11.0764 9.84376 9.99601C8.75354 8.91561 7.36483 8.17995 5.85267 7.8818C4.49065 7.61332 3.30679 7.80084 2 8.25C4.76794 3.37963 9.81221 3.83704e-06 15.8546 0Z" fill="#AAAAAA"/>
</g>
<defs>
<clipPath id="clip0_647_20">
<rect width="32" height="32" fill="white"/>
</clipPath>
</defs>
</svg>
