<svg width="64" height="46" viewBox="0 0 64 46" fill="none" xmlns="http://www.w3.org/2000/svg">
<path d="M44 27C44 37.9091 32 45.5455 32 45.5455C32 45.5455 20 37.9091 20 27C20 20.3726 25.3726 15 32 15C38.6274 15 44 20.3726 44 27Z" fill="#4C85FF"/>
<circle cx="32" cy="25.909" r="6.54545" fill="white"/>
<rect width="64" height="14" rx="4" fill="white"/>
<path d="M4.154 12.815V9.889H4.957C5.32367 9.449 5.595 8.84767 5.771 8.085C5.947 7.32233 6.035 6.38367 6.035 5.269V3.245H11.656V9.889H12.789V12.815H11.557V11H5.397V12.815H4.154ZM6.376 9.889H10.248V4.345H7.333V5.401C7.333 6.46433 7.25233 7.359 7.091 8.085C6.937 8.811 6.69867 9.41233 6.376 9.889ZM13.6499 7.117C13.6499 6.303 13.7966 5.599 14.0899 5.005C14.3906 4.411 14.8196 3.95267 15.3769 3.63C15.9343 3.3 16.5979 3.135 17.3679 3.135C18.1306 3.135 18.7906 3.3 19.3479 3.63C19.9053 3.95267 20.3343 4.411 20.6349 5.005C20.9429 5.599 21.0969 6.29933 21.0969 7.106C21.0969 7.92 20.9429 8.62767 20.6349 9.229C20.3343 9.823 19.9053 10.285 19.3479 10.615C18.7906 10.945 18.1306 11.11 17.3679 11.11C16.5979 11.11 15.9343 10.945 15.3769 10.615C14.8269 10.285 14.4016 9.823 14.1009 9.229C13.8003 8.62767 13.6499 7.92367 13.6499 7.117ZM15.1349 7.117C15.1349 7.98967 15.3219 8.67167 15.6959 9.163C16.0699 9.65433 16.6273 9.9 17.3679 9.9C18.0866 9.9 18.6403 9.65433 19.0289 9.163C19.4176 8.67167 19.6119 7.98967 19.6119 7.117C19.6119 6.237 19.4176 5.555 19.0289 5.071C18.6476 4.587 18.0939 4.345 17.3679 4.345C16.6273 4.345 16.0699 4.587 15.6959 5.071C15.3219 5.555 15.1349 6.237 15.1349 7.117ZM22.5611 11V3.245H23.9581V6.545H25.2781L24.9921 6.732L27.2801 3.245H28.8421L26.2901 6.996L25.7511 6.6C26.2498 6.67333 26.6641 6.84567 26.9941 7.117C27.3315 7.381 27.6248 7.755 27.8741 8.239L29.2491 11H27.7201L26.6531 8.767C26.4698 8.37833 26.2498 8.10333 25.9931 7.942C25.7438 7.78067 25.4248 7.7 25.0361 7.7H23.9581V11H22.5611ZM30.1559 11V3.245H35.4139V4.4H31.5639V11H30.1559ZM36.1175 11.187L35.4245 10.142C35.7325 9.97333 36.0038 9.77533 36.2385 9.548C36.4732 9.32067 36.6675 9.03833 36.8215 8.701C36.9755 8.35633 37.0892 7.93467 37.1625 7.436C37.2432 6.93 37.2835 6.32133 37.2835 5.61V3.245H42.9155V11H41.5075V4.4H38.5925V5.962C38.5925 6.70267 38.5375 7.35533 38.4275 7.92C38.3175 8.48467 38.1562 8.97967 37.9435 9.405C37.7308 9.823 37.4705 10.1787 37.1625 10.472C36.8618 10.758 36.5135 10.9963 36.1175 11.187ZM43.7676 11L47.2766 3.245H48.4646L52.0176 11H50.5766L49.6306 8.822L50.2026 9.207H45.5496L46.1436 8.822L45.1976 11H43.7676ZM47.8596 4.763L46.3086 8.437L46.0226 8.096H49.7186L49.4876 8.437L47.9036 4.763H47.8596ZM55.4496 11.11C54.7822 11.11 54.1882 11.0293 53.6676 10.868C53.1469 10.6993 52.7069 10.4683 52.3476 10.175L52.7986 9.13C53.1286 9.394 53.5026 9.59567 53.9206 9.735C54.3386 9.867 54.8152 9.933 55.3506 9.933C55.9959 9.933 56.4689 9.834 56.7696 9.636C57.0702 9.43067 57.2206 9.12633 57.2206 8.723C57.2206 8.349 57.0959 8.074 56.8466 7.898C56.5972 7.71467 56.2122 7.623 55.6916 7.623H53.7446V6.512H55.5156C56.0142 6.512 56.3882 6.424 56.6376 6.248C56.8942 6.06467 57.0226 5.79333 57.0226 5.434C57.0226 5.08933 56.8869 4.818 56.6156 4.62C56.3442 4.41467 55.9262 4.312 55.3616 4.312C54.9142 4.312 54.4852 4.378 54.0746 4.51C53.6639 4.642 53.2972 4.83633 52.9746 5.093L52.5236 4.048C52.8682 3.75467 53.3009 3.531 53.8216 3.377C54.3496 3.21567 54.9069 3.135 55.4936 3.135C56.4542 3.135 57.1766 3.32933 57.6606 3.718C58.1519 4.10667 58.3976 4.61633 58.3976 5.247C58.3976 5.71633 58.2582 6.116 57.9796 6.446C57.7009 6.76867 57.3196 6.985 56.8356 7.095V6.93C57.3856 7.01067 57.8146 7.216 58.1226 7.546C58.4379 7.876 58.5956 8.30867 58.5956 8.844C58.5956 9.29867 58.4782 9.69833 58.2436 10.043C58.0162 10.3803 57.6679 10.6443 57.1986 10.835C56.7366 11.0183 56.1536 11.11 55.4496 11.11Z" fill="black"/>
</svg>
